<svg width="24" height="88" viewBox="0 0 24 88" fill="none" xmlns="http://www.w3.org/2000/svg">
<circle r="11" transform="matrix(1 0 0 -1 12 12)" stroke="#00608D" stroke-width="2"/>
<path d="M13 12L13 11L11 11L11 12L13 12ZM11.2929 87.7071C11.6834 88.0976 12.3166 88.0976 12.7071 87.7071L19.0711 81.3431C19.4616 80.9526 19.4616 80.3195 19.0711 79.9289C18.6805 79.5384 18.0474 79.5384 17.6569 79.9289L12 85.5858L6.34314 79.9289C5.95262 79.5384 5.31945 79.5384 4.92893 79.9289C4.5384 80.3195 4.5384 80.9526 4.92893 81.3431L11.2929 87.7071ZM11 12L11 87L13 87L13 12L11 12Z" fill="#00608D"/>
</svg>
